<svg width="61" height="61" viewBox="0 0 61 61" fill="none" xmlns="http://www.w3.org/2000/svg">
<g clip-path="url(#clip0_money)">
<path d="M30.5 15.25C26.7721 15.25 23.75 18.2721 23.75 22C23.75 25.7279 26.7721 28.75 30.5 28.75C34.2279 28.75 37.25 25.7279 37.25 22C37.25 18.2721 34.2279 15.25 30.5 15.25Z" stroke="#FFB34A" stroke-width="1.5" stroke-miterlimit="10" stroke-linecap="round" stroke-linejoin="round"/>
<path d="M30.5 18.5V25.5" stroke="#FFB34A" stroke-width="1.5" stroke-miterlimit="10" stroke-linecap="round" stroke-linejoin="round"/>
<path d="M28 20.5H32C32.8284 20.5 33.5 21.1716 33.5 22C33.5 22.8284 32.8284 23.5 32 23.5H29C28.1716 23.5 27.5 24.1716 27.5 25C27.5 25.8284 28.1716 26.5 29 26.5H33" stroke="#FFB34A" stroke-width="1.5" stroke-miterlimit="10" stroke-linecap="round" stroke-linejoin="round"/>
<path d="M53.5 22C53.5 34.4264 43.4264 44.5 31 44.5C18.5736 44.5 8.5 34.4264 8.5 22C8.5 9.57359 18.5736 -0.5 31 -0.5C43.4264 -0.5 53.5 9.57359 53.5 22Z" stroke="#FFB34A" stroke-width="1.5" stroke-miterlimit="10" stroke-linecap="round" stroke-linejoin="round"/>
<path d="M45.5 35.5L48.5 38.5L51.5 41.5" stroke="#FFB34A" stroke-width="1.5" stroke-miterlimit="10" stroke-linecap="round" stroke-linejoin="round"/>
<path d="M15.5 35.5L12.5 38.5L9.5 41.5" stroke="#FFB34A" stroke-width="1.5" stroke-miterlimit="10" stroke-linecap="round" stroke-linejoin="round"/>
<path d="M45.5 8.5L48.5 5.5L51.5 2.5" stroke="#FFB34A" stroke-width="1.5" stroke-miterlimit="10" stroke-linecap="round" stroke-linejoin="round"/>
<path d="M15.5 8.5L12.5 5.5L9.5 2.5" stroke="#FFB34A" stroke-width="1.5" stroke-miterlimit="10" stroke-linecap="round" stroke-linejoin="round"/>
<path d="M18.5 50.5C20.7091 50.5 22.5 48.7091 22.5 46.5C22.5 44.2909 20.7091 42.5 18.5 42.5C16.2909 42.5 14.5 44.2909 14.5 46.5C14.5 48.7091 16.2909 50.5 18.5 50.5Z" stroke="#FFB34A" stroke-width="1.5" stroke-miterlimit="10" stroke-linecap="round" stroke-linejoin="round"/>
<path d="M18.5 44.5V48.5" stroke="#FFB34A" stroke-width="1.5" stroke-miterlimit="10" stroke-linecap="round" stroke-linejoin="round"/>
<path d="M42.5 58.5C44.7091 58.5 46.5 56.7091 46.5 54.5C46.5 52.2909 44.7091 50.5 42.5 50.5C40.2909 50.5 38.5 52.2909 38.5 54.5C38.5 56.7091 40.2909 58.5 42.5 58.5Z" stroke="#FFB34A" stroke-width="1.5" stroke-miterlimit="10" stroke-linecap="round" stroke-linejoin="round"/>
<path d="M42.5 52.5V56.5" stroke="#FFB34A" stroke-width="1.5" stroke-miterlimit="10" stroke-linecap="round" stroke-linejoin="round"/>
<path d="M52.5 52.5C54.1569 52.5 55.5 51.1569 55.5 49.5C55.5 47.8431 54.1569 46.5 52.5 46.5C50.8431 46.5 49.5 47.8431 49.5 49.5C49.5 51.1569 50.8431 52.5 52.5 52.5Z" stroke="#FFB34A" stroke-width="1.5" stroke-miterlimit="10" stroke-linecap="round" stroke-linejoin="round"/>
<path d="M52.5 48V51" stroke="#FFB34A" stroke-width="1.5" stroke-miterlimit="10" stroke-linecap="round" stroke-linejoin="round"/>
</g>
<defs>
<clipPath id="clip0_money">
<rect width="61" height="61" fill="white"/>
</clipPath>
</defs>
</svg>
